<svg width="24" height="26" viewBox="0 0 24 26" fill="none" xmlns="http://www.w3.org/2000/svg">
<path d="M2 10.4448H22L22 22.8521C22 23.4861 21.5287 24 20.9473 24H3.05263C2.47128 24 2 23.4861 2 22.8521V10.4448Z" stroke="#410C00" stroke-width="1.7" stroke-linejoin="round"/>
<path d="M2 5.30001C2 4.6925 2.47128 4.20001 3.05263 4.20001H20.9473C21.5287 4.20001 22 4.6925 22 5.30001V10.4449H2L2 5.30001Z" fill="#410C00" stroke="#410C00" stroke-width="1.7" stroke-linejoin="round"/>
<path d="M7.09805 2V6.58333V2Z" fill="#410C00"/>
<path d="M7.09805 2V6.58333" stroke="#410C00" stroke-width="1.7" stroke-linecap="round" stroke-linejoin="round"/>
<path d="M16.9019 2V6.58333V2Z" fill="#410C00"/>
<path d="M16.9019 2V6.58333" stroke="#410C00" stroke-width="1.7" stroke-linecap="round" stroke-linejoin="round"/>
<path d="M7.04898 14.6041H17.6372H7.04898Z" fill="#410C00"/>
<path d="M7.04898 14.6041H17.6372" stroke="#410C00" stroke-width="1.7" stroke-linecap="round" stroke-linejoin="round"/>
<path d="M7.04898 18.9583H17.6372H7.04898Z" fill="#410C00"/>
<path d="M7.04898 18.9583H17.6372" stroke="#410C00" stroke-width="1.7" stroke-linecap="round" stroke-linejoin="round"/>
</svg>
