<svg width="24" height="24" viewBox="0 0 24 24" fill="none" xmlns="http://www.w3.org/2000/svg">
<path d="M4 6.00024C4.55228 6.00024 5 5.55252 5 5.00024C5 4.44796 4.55228 4.00024 4 4.00024C3.44771 4.00024 3 4.44796 3 5.00024C3 5.55252 3.44771 6.00024 4 6.00024Z" stroke="#410C00" stroke-width="2" stroke-linejoin="round"/>
<path d="M4 13.0002C4.55229 13.0002 5 12.5525 5 12.0002C5 11.4479 4.55229 11.0002 4 11.0002C3.44771 11.0002 3 11.4479 3 12.0002C3 12.5525 3.44771 13.0002 4 13.0002Z" stroke="#410C00" stroke-width="2" stroke-linejoin="round"/>
<path d="M4 20.0002C4.55229 20.0002 5 19.5525 5 19.0002C5 18.4479 4.55229 18.0002 4 18.0002C3.44771 18.0002 3 18.4479 3 19.0002C3 19.5525 3.44771 20.0002 4 20.0002Z" stroke="#410C00" stroke-width="2" stroke-linejoin="round"/>
<path d="M10 12.0002H22" stroke="#410C00" stroke-width="2" stroke-linecap="round" stroke-linejoin="round"/>
<path d="M10 19.0002H22" stroke="#410C00" stroke-width="2" stroke-linecap="round" stroke-linejoin="round"/>
<path d="M10 5.00024H22" stroke="#410C00" stroke-width="2" stroke-linecap="round" stroke-linejoin="round"/>
</svg>
