<svg width="17" height="16" viewBox="0 0 17 16" fill="none" xmlns="http://www.w3.org/2000/svg">
<path d="M3.18603 13.1435V2.66751C3.18603 2.01951 2.88903 1.56051 2.29503 1.29051C1.86303 1.12851 1.37703 1.02051 0.783026 1.02051C0.459026 1.02051 0.297026 0.912512 0.297026 0.669512C0.297026 0.453512 0.459026 0.318512 0.783026 0.318512H9.55803C11.475 0.318512 13.068 0.750513 14.31 1.61451C15.444 2.42451 16.011 3.36951 16.011 4.44951C16.011 5.52951 15.417 6.42051 14.256 7.12251C12.96 7.93251 11.124 8.33751 8.80203 8.33751L7.66803 8.25651L6.45303 8.17551V12.9545C6.45303 13.7915 6.69603 14.3855 7.23603 14.7095C7.56003 14.9255 8.04603 15.0335 8.69403 15.0335L9.15303 14.9795C9.31503 14.9795 9.42303 15.0335 9.53103 15.0875L9.63903 15.3305C9.63903 15.5735 9.47703 15.6815 9.15303 15.6815H0.783026C0.405026 15.6815 0.189026 15.5735 0.189026 15.3305C0.243026 15.2225 0.324026 15.1685 0.378026 15.1145C0.432026 15.0605 0.567026 15.0335 0.783026 14.9795C1.56603 14.9795 2.16003 14.8445 2.56503 14.5745C2.97003 14.3045 3.18603 13.8185 3.18603 13.1435ZM6.45303 7.68951H9.15303L9.26103 7.71651C10.179 7.71651 10.908 7.39251 11.475 6.71751C12.042 6.04251 12.339 5.25951 12.339 4.34151C12.339 3.45051 12.069 2.69451 11.583 2.07351C10.989 1.37151 10.179 1.02051 9.15303 1.02051C8.23503 1.02051 7.56003 1.12851 7.12803 1.31751C6.66903 1.50651 6.45303 1.96551 6.45303 2.69451V7.68951Z" fill="#410C00"/>
<path d="M15.3152 9.8105C14.9416 9.8105 14.5681 9.8605 14.07 9.9605C13.5097 10.0605 13.1362 10.1105 12.8872 10.1105C12.6381 10.1355 12.2646 10.1355 11.7665 10.1355H11.7665C11.2685 10.1355 10.7082 10.1355 10.2101 10.0855C9.64981 10.0605 8.96498 10.0105 8.09339 9.9105C7.22179 9.8355 6.66148 9.7855 6.35019 9.7605C5.97665 9.7605 5.54086 9.7355 4.91829 9.7355C4.17121 9.7855 3.48638 9.8355 2.80156 9.9355C2.05447 10.0355 1.43191 10.1605 0.871595 10.3605C0.249027 10.5355 0 10.7355 0 10.9355L0.124514 11.0105L0.435797 11.0605L1.80545 10.8855C2.24124 10.7855 2.67704 10.7355 3.05058 10.7355C3.42412 10.7355 4.10895 10.7855 4.98055 10.8855L7.3463 11.1605L9.15175 11.2355C10.5214 11.2355 11.8288 11.1355 13.1362 10.8855C14.3813 10.6355 15.1907 10.4105 15.5642 10.1855C15.6887 10.1855 15.8755 10.1105 16 10.0105L15.8755 9.9355C15.751 9.9105 15.5642 9.8605 15.3152 9.8105Z" fill="#410C00"/>
</svg>
