<svg width="20" height="20" viewBox="0 0 20 20" fill="none" xmlns="http://www.w3.org/2000/svg">
<path d="M7.07778 2.78913C6.87778 3.50024 6.77778 4.24469 6.77778 5.00024C6.77778 9.53358 10.4667 13.2225 15 13.2225C15.7556 13.2225 16.5 13.1225 17.2111 12.9225C16.0556 15.7669 13.2556 17.778 10 17.778C5.71111 17.778 2.22222 14.2891 2.22222 10.0002C2.22222 6.74469 4.23333 3.94469 7.07778 2.78913ZM10 0.000244141C4.47778 0.000244141 0 4.47802 0 10.0002C0 15.5225 4.47778 20.0002 10 20.0002C15.5222 20.0002 20 15.5225 20 10.0002C20 9.48913 19.9556 8.97802 19.8889 8.48913C18.8 10.0114 17.0222 11.0002 15 11.0002C11.6889 11.0002 9 8.31136 9 5.00024C9 2.98913 9.98889 1.20024 11.5111 0.111355C11.0222 0.0446885 10.5111 0.000244141 10 0.000244141Z" fill="#410C00"/>
</svg>
